<?xml version="1.0" encoding="UTF-8"?><svg xmlns="http://www.w3.org/2000/svg" xmlns:xlink="http://www.w3.org/1999/xlink" fill-opacity="1" color-rendering="auto" color-interpolation="auto" text-rendering="auto" stroke="black" stroke-linecap="square" width="854" stroke-miterlimit="10" shape-rendering="auto" stroke-opacity="1" fill="black" stroke-dasharray="none" font-weight="normal" stroke-width="1" height="1370" font-family="'Dialog'" font-style="normal" stroke-linejoin="miter" font-size="12px" stroke-dashoffset="0" image-rendering="auto">
  <!--Generated by ySVG 2.5-->
  <defs id="genericDefs"/>
  <g>
    <defs id="defs1">
      <clipPath clipPathUnits="userSpaceOnUse" id="clipPath1">
        <path d="M0 0 L854 0 L854 1370 L0 1370 L0 0 Z"/>
      </clipPath>
      <clipPath clipPathUnits="userSpaceOnUse" id="clipPath2">
        <path d="M224 -151 L1078 -151 L1078 1219 L224 1219 L224 -151 Z"/>
      </clipPath>
      <clipPath clipPathUnits="userSpaceOnUse" id="clipPath3">
        <path d="M0 10 L-0 -10 L-12 -10 L-12 10 L0 10 Z"/>
      </clipPath>
      <clipPath clipPathUnits="userSpaceOnUse" id="clipPath4">
        <path d="M0 10 L0 -10 L-12 -10 L-12 10 Z"/>
      </clipPath>
      <clipPath clipPathUnits="userSpaceOnUse" id="clipPath5">
        <path d="M-12 -10 L-12 10 L0 10 L0 -10 Z"/>
      </clipPath>
      <clipPath clipPathUnits="userSpaceOnUse" id="clipPath6">
        <path d="M-0 10 L0 -10 L-12 -10 L-12 10 L-0 10 Z"/>
      </clipPath>
      <clipPath clipPathUnits="userSpaceOnUse" id="clipPath7">
        <path d="M-12 -10 L-12 10 L-0 10 L0 -10 L-12 -10 Z"/>
      </clipPath>
      <clipPath clipPathUnits="userSpaceOnUse" id="clipPath8">
        <path d="M-12 10 L0 10 L-0 -10 L-12 -10 L-12 10 Z"/>
      </clipPath>
    </defs>
    <g fill="white" text-rendering="geometricPrecision" shape-rendering="geometricPrecision" transform="translate(-224,151)" stroke="white">
      <rect x="224" width="854" height="1370" y="-151" clip-path="url(#clipPath2)" stroke="none"/>
    </g>
    <g fill="yellow" text-rendering="geometricPrecision" shape-rendering="geometricPrecision" transform="matrix(1,0,0,1,-224,151)" stroke="yellow">
      <rect x="479.25" width="102" height="69" y="-135.5" clip-path="url(#clipPath2)" stroke="none"/>
    </g>
    <g text-rendering="geometricPrecision" stroke-miterlimit="1.45" stroke-width="2" shape-rendering="geometricPrecision" transform="matrix(1,0,0,1,-224,151)" stroke-linecap="butt">
      <rect fill="none" x="479.25" width="102" height="69" y="-135.5" clip-path="url(#clipPath2)"/>
      <text x="520.3652" y="-96.8457" clip-path="url(#clipPath2)" font-family="sans-serif" stroke="none" font-weight="bold" stroke-width="1" xml:space="preserve">a.c</text>
    </g>
    <g fill="white" text-rendering="geometricPrecision" shape-rendering="geometricPrecision" transform="matrix(1,0,0,1,-224,151)" stroke="white">
      <rect x="665" y="57" clip-path="url(#clipPath2)" width="102" rx="4" ry="4" height="69" stroke="none"/>
    </g>
    <g stroke-linecap="butt" transform="matrix(1,0,0,1,-224,151)" text-rendering="geometricPrecision" shape-rendering="geometricPrecision" stroke-dasharray="18,6" stroke-width="3" stroke-miterlimit="1.45">
      <rect x="665" y="57" clip-path="url(#clipPath2)" fill="none" width="102" rx="4" ry="4" height="69"/>
      <text x="709.4023" y="95.6543" clip-path="url(#clipPath2)" font-family="sans-serif" stroke-dasharray="none" stroke="none" stroke-width="1" xml:space="preserve">cc</text>
    </g>
    <g fill="rgb(255,255,153)" text-rendering="geometricPrecision" shape-rendering="geometricPrecision" transform="matrix(1,0,0,1,-224,151)" stroke="rgb(255,255,153)">
      <rect x="488" width="102" height="69" y="57" clip-path="url(#clipPath2)" stroke="none"/>
    </g>
    <g text-rendering="geometricPrecision" stroke-miterlimit="1.45" shape-rendering="geometricPrecision" transform="matrix(1,0,0,1,-224,151)" stroke-linecap="butt">
      <rect fill="none" x="488" width="102" height="69" y="57" clip-path="url(#clipPath2)"/>
      <text x="515.7266" xml:space="preserve" y="95.6543" clip-path="url(#clipPath2)" font-family="sans-serif" stroke="none">a.c_flags</text>
    </g>
    <g fill="white" text-rendering="geometricPrecision" shape-rendering="geometricPrecision" transform="matrix(1,0,0,1,-224,151)" stroke="white">
      <path d="M675.2 212 L767 212 L756.8 246.5 L767 281 L675.2 281 L665 246.5 Z" fill-rule="evenodd" clip-path="url(#clipPath2)" stroke="none"/>
    </g>
    <g stroke-linecap="butt" transform="matrix(1,0,0,1,-224,151)" text-rendering="geometricPrecision" shape-rendering="geometricPrecision" stroke-dasharray="18,6" stroke-width="3" stroke-miterlimit="1.45">
      <path fill="none" d="M675.2 212 L767 212 L756.8 246.5 L767 281 L675.2 281 L665 246.5 Z" fill-rule="evenodd" clip-path="url(#clipPath2)"/>
      <text x="694.3613" y="250.6543" clip-path="url(#clipPath2)" font-family="sans-serif" stroke-dasharray="none" stroke="none" stroke-width="1" xml:space="preserve">grep -E</text>
    </g>
    <g fill="rgb(204,255,255)" text-rendering="geometricPrecision" shape-rendering="geometricPrecision" transform="matrix(1,0,0,1,-224,151)" stroke="rgb(204,255,255)">
      <rect x="665" y="452" clip-path="url(#clipPath2)" width="102" rx="4" ry="4" height="69" stroke="none"/>
    </g>
    <g text-rendering="geometricPrecision" stroke-miterlimit="1.45" stroke-width="2" shape-rendering="geometricPrecision" transform="matrix(1,0,0,1,-224,151)" stroke-linecap="butt">
      <rect x="665" y="452" clip-path="url(#clipPath2)" fill="none" width="102" rx="4" ry="4" height="69"/>
      <text x="691.6367" y="490.6543" clip-path="url(#clipPath2)" font-family="sans-serif" stroke="none" stroke-width="1" xml:space="preserve">test.exe</text>
    </g>
    <g fill="rgb(255,255,153)" text-rendering="geometricPrecision" shape-rendering="geometricPrecision" transform="matrix(1,0,0,1,-224,151)" stroke="rgb(255,255,153)">
      <rect x="488" width="102" height="69" y="452" clip-path="url(#clipPath2)" stroke="none"/>
    </g>
    <g text-rendering="geometricPrecision" stroke-miterlimit="1.45" shape-rendering="geometricPrecision" transform="matrix(1,0,0,1,-224,151)" stroke-linecap="butt">
      <rect fill="none" x="488" width="102" height="69" y="452" clip-path="url(#clipPath2)"/>
      <text x="518.6592" xml:space="preserve" y="490.6543" clip-path="url(#clipPath2)" font-family="sans-serif" stroke="none">a.stdin</text>
    </g>
    <g fill="rgb(204,255,255)" text-rendering="geometricPrecision" shape-rendering="geometricPrecision" transform="matrix(1,0,0,1,-224,151)" stroke="rgb(204,255,255)">
      <path d="M971.1996 931 L1062.9993 931 L1052.7994 1000 L960.9996 1000 Z" fill-rule="evenodd" clip-path="url(#clipPath2)" stroke="none"/>
    </g>
    <g text-rendering="geometricPrecision" stroke-miterlimit="1.45" shape-rendering="geometricPrecision" transform="matrix(1,0,0,1,-224,151)" stroke-linecap="butt">
      <path fill="none" d="M971.1996 931 L1062.9993 931 L1052.7994 1000 L960.9996 1000 Z" fill-rule="evenodd" clip-path="url(#clipPath2)"/>
      <text x="992.8867" xml:space="preserve" y="969.6543" clip-path="url(#clipPath2)" font-family="sans-serif" stroke="none">stdout</text>
    </g>
    <g fill="rgb(204,255,255)" text-rendering="geometricPrecision" shape-rendering="geometricPrecision" transform="matrix(1,0,0,1,-224,151)" stroke="rgb(204,255,255)">
      <path d="M971.2 766.0373 L1062.9999 766.0373 L1052.7999 835.0373 L960.9999 835.0373 Z" fill-rule="evenodd" clip-path="url(#clipPath2)" stroke="none"/>
    </g>
    <g text-rendering="geometricPrecision" stroke-miterlimit="1.45" shape-rendering="geometricPrecision" transform="matrix(1,0,0,1,-224,151)" stroke-linecap="butt">
      <path fill="none" d="M971.2 766.0373 L1062.9999 766.0373 L1052.7999 835.0373 L960.9999 835.0373 Z" fill-rule="evenodd" clip-path="url(#clipPath2)"/>
      <text x="994.0879" xml:space="preserve" y="804.6918" clip-path="url(#clipPath2)" font-family="sans-serif" stroke="none">stderr</text>
    </g>
    <g fill="rgb(204,255,255)" text-rendering="geometricPrecision" shape-rendering="geometricPrecision" transform="matrix(1,0,0,1,-224,151)" stroke="rgb(204,255,255)">
      <path d="M971.1993 212 L1062.9994 212 L1052.7994 281 L960.9993 281 Z" fill-rule="evenodd" clip-path="url(#clipPath2)" stroke="none"/>
    </g>
    <g text-rendering="geometricPrecision" stroke-miterlimit="1.45" shape-rendering="geometricPrecision" transform="matrix(1,0,0,1,-224,151)" stroke-linecap="butt">
      <path fill="none" d="M971.1993 212 L1062.9994 212 L1052.7994 281 L960.9993 281 Z" fill-rule="evenodd" clip-path="url(#clipPath2)"/>
      <text x="994.0879" xml:space="preserve" y="250.6543" clip-path="url(#clipPath2)" font-family="sans-serif" stroke="none">stderr</text>
    </g>
    <g fill="rgb(255,102,0)" text-rendering="geometricPrecision" shape-rendering="geometricPrecision" transform="matrix(1,0,0,1,-224,151)" stroke="rgb(255,102,0)">
      <path d="M1026 413.25 L1034.4956 397.8743 L1052.163 403.1452 L1046.5101 386.6715 L1063 378.75 L1046.5101 370.8285 L1052.163 354.3548 L1034.4956 359.6257 L1026 344.25 L1017.5045 359.6257 L999.837 354.3548 L1005.4899 370.8285 L989 378.75 L1005.4899 386.6715 L999.837 403.1452 L1017.5045 397.8743 Z" fill-rule="evenodd" clip-path="url(#clipPath2)" stroke="none"/>
    </g>
    <g text-rendering="geometricPrecision" stroke-miterlimit="1.45" shape-rendering="geometricPrecision" transform="matrix(1,0,0,1,-224,151)" stroke-linecap="butt">
      <path fill="none" d="M1026 413.25 L1034.4956 397.8743 L1052.163 403.1452 L1046.5101 386.6715 L1063 378.75 L1046.5101 370.8285 L1052.163 354.3548 L1034.4956 359.6257 L1026 344.25 L1017.5045 359.6257 L999.837 354.3548 L1005.4899 370.8285 L989 378.75 L1005.4899 386.6715 L999.837 403.1452 L1017.5045 397.8743 Z" fill-rule="evenodd" clip-path="url(#clipPath2)"/>
      <text x="1013.332" xml:space="preserve" y="382.9043" clip-path="url(#clipPath2)" font-family="sans-serif" stroke="none">FAIL</text>
    </g>
    <g fill="white" text-rendering="geometricPrecision" shape-rendering="geometricPrecision" transform="matrix(1,0,0,1,-224,151)" stroke="white">
      <path d="M675.2 762 L767 762 L756.8 796.5 L767 831 L675.2 831 L665 796.5 Z" fill-rule="evenodd" clip-path="url(#clipPath2)" stroke="none"/>
    </g>
    <g stroke-linecap="butt" transform="matrix(1,0,0,1,-224,151)" text-rendering="geometricPrecision" shape-rendering="geometricPrecision" stroke-dasharray="18,6" stroke-width="3" stroke-miterlimit="1.45">
      <path fill="none" d="M675.2 762 L767 762 L756.8 796.5 L767 831 L675.2 831 L665 796.5 Z" fill-rule="evenodd" clip-path="url(#clipPath2)"/>
      <text x="706.2998" y="800.6543" clip-path="url(#clipPath2)" font-family="sans-serif" stroke-dasharray="none" stroke="none" stroke-width="1" xml:space="preserve">diff</text>
    </g>
    <g fill="white" text-rendering="geometricPrecision" shape-rendering="geometricPrecision" transform="matrix(1,0,0,1,-224,151)" stroke="white">
      <path d="M675.2 931 L767 931 L756.8 965.5 L767 1000 L675.2 1000 L665 965.5 Z" fill-rule="evenodd" clip-path="url(#clipPath2)" stroke="none"/>
    </g>
    <g stroke-linecap="butt" transform="matrix(1,0,0,1,-224,151)" text-rendering="geometricPrecision" shape-rendering="geometricPrecision" stroke-dasharray="18,6" stroke-width="3" stroke-miterlimit="1.45">
      <path fill="none" d="M675.2 931 L767 931 L756.8 965.5 L767 1000 L675.2 1000 L665 965.5 Z" fill-rule="evenodd" clip-path="url(#clipPath2)"/>
      <text x="706.2998" y="969.6543" clip-path="url(#clipPath2)" font-family="sans-serif" stroke-dasharray="none" stroke="none" stroke-width="1" xml:space="preserve">diff</text>
    </g>
    <g fill="rgb(255,255,153)" text-rendering="geometricPrecision" shape-rendering="geometricPrecision" transform="matrix(1,0,0,1,-224,151)" stroke="rgb(255,255,153)">
      <rect x="488" width="102" height="69" y="344.25" clip-path="url(#clipPath2)" stroke="none"/>
    </g>
    <g text-rendering="geometricPrecision" stroke-miterlimit="1.45" shape-rendering="geometricPrecision" transform="matrix(1,0,0,1,-224,151)" stroke-linecap="butt">
      <rect fill="none" x="488" width="102" height="69" y="344.25" clip-path="url(#clipPath2)"/>
      <text x="495.0723" xml:space="preserve" y="382.9043" clip-path="url(#clipPath2)" font-family="sans-serif" stroke="none">a.environment</text>
    </g>
    <g fill="rgb(255,255,153)" text-rendering="geometricPrecision" shape-rendering="geometricPrecision" transform="matrix(1,0,0,1,-224,151)" stroke="rgb(255,255,153)">
      <rect x="488" width="102" height="69" y="212" clip-path="url(#clipPath2)" stroke="none"/>
    </g>
    <g text-rendering="geometricPrecision" stroke-miterlimit="1.45" shape-rendering="geometricPrecision" transform="matrix(1,0,0,1,-224,151)" stroke-linecap="butt">
      <rect fill="none" x="488" width="102" height="69" y="212" clip-path="url(#clipPath2)"/>
      <text x="513.8574" xml:space="preserve" y="250.6543" clip-path="url(#clipPath2)" font-family="sans-serif" stroke="none">a.ccdiag</text>
    </g>
    <g fill="rgb(255,255,153)" text-rendering="geometricPrecision" shape-rendering="geometricPrecision" transform="matrix(1,0,0,1,-224,151)" stroke="rgb(255,255,153)">
      <rect x="488" width="102" height="69" y="931" clip-path="url(#clipPath2)" stroke="none"/>
    </g>
    <g text-rendering="geometricPrecision" stroke-miterlimit="1.45" shape-rendering="geometricPrecision" transform="matrix(1,0,0,1,-224,151)" stroke-linecap="butt">
      <rect fill="none" x="488" width="102" height="69" y="931" clip-path="url(#clipPath2)"/>
      <text x="514.3027" xml:space="preserve" y="969.6543" clip-path="url(#clipPath2)" font-family="sans-serif" stroke="none">a.stdout</text>
    </g>
    <g fill="rgb(255,255,153)" text-rendering="geometricPrecision" shape-rendering="geometricPrecision" transform="matrix(1,0,0,1,-224,151)" stroke="rgb(255,255,153)">
      <rect x="488" width="102" height="69" y="762" clip-path="url(#clipPath2)" stroke="none"/>
    </g>
    <g text-rendering="geometricPrecision" stroke-miterlimit="1.45" shape-rendering="geometricPrecision" transform="matrix(1,0,0,1,-224,151)" stroke-linecap="butt">
      <rect fill="none" x="488" width="102" height="69" y="762" clip-path="url(#clipPath2)"/>
      <text x="515.5039" xml:space="preserve" y="800.6543" clip-path="url(#clipPath2)" font-family="sans-serif" stroke="none">a.stderr</text>
    </g>
    <g fill="rgb(255,102,0)" text-rendering="geometricPrecision" shape-rendering="geometricPrecision" transform="matrix(1,0,0,1,-224,151)" stroke="rgb(255,102,0)">
      <path d="M1026 676.0001 L1034.4956 660.6245 L1052.163 665.8953 L1046.5101 649.4217 L1063 641.5001 L1046.5101 633.5786 L1052.163 617.1049 L1034.4956 622.3758 L1026 607.0001 L1017.5045 622.3758 L999.837 617.1049 L1005.4899 633.5786 L989 641.5001 L1005.4899 649.4217 L999.837 665.8953 L1017.5045 660.6245 Z" fill-rule="evenodd" clip-path="url(#clipPath2)" stroke="none"/>
    </g>
    <g text-rendering="geometricPrecision" stroke-miterlimit="1.45" shape-rendering="geometricPrecision" transform="matrix(1,0,0,1,-224,151)" stroke-linecap="butt">
      <path fill="none" d="M1026 676.0001 L1034.4956 660.6245 L1052.163 665.8953 L1046.5101 649.4217 L1063 641.5001 L1046.5101 633.5786 L1052.163 617.1049 L1034.4956 622.3758 L1026 607.0001 L1017.5045 622.3758 L999.837 617.1049 L1005.4899 633.5786 L989 641.5001 L1005.4899 649.4217 L999.837 665.8953 L1017.5045 660.6245 Z" fill-rule="evenodd" clip-path="url(#clipPath2)"/>
      <text x="1013.332" xml:space="preserve" y="645.6543" clip-path="url(#clipPath2)" font-family="sans-serif" stroke="none">FAIL</text>
    </g>
    <g fill="rgb(255,102,0)" text-rendering="geometricPrecision" shape-rendering="geometricPrecision" transform="matrix(1,0,0,1,-224,151)" stroke="rgb(255,102,0)">
      <path d="M1026 1157.15 L1034.4956 1141.7743 L1052.163 1147.0452 L1046.5101 1130.5715 L1063 1122.65 L1046.5101 1114.7284 L1052.163 1098.2548 L1034.4956 1103.5256 L1026 1088.15 L1017.5045 1103.5256 L999.837 1098.2548 L1005.4899 1114.7284 L989 1122.65 L1005.4899 1130.5715 L999.837 1147.0452 L1017.5045 1141.7743 Z" fill-rule="evenodd" clip-path="url(#clipPath2)" stroke="none"/>
    </g>
    <g text-rendering="geometricPrecision" stroke-miterlimit="1.45" shape-rendering="geometricPrecision" transform="matrix(1,0,0,1,-224,151)" stroke-linecap="butt">
      <path fill="none" d="M1026 1157.15 L1034.4956 1141.7743 L1052.163 1147.0452 L1046.5101 1130.5715 L1063 1122.65 L1046.5101 1114.7284 L1052.163 1098.2548 L1034.4956 1103.5256 L1026 1088.15 L1017.5045 1103.5256 L999.837 1098.2548 L1005.4899 1114.7284 L989 1122.65 L1005.4899 1130.5715 L999.837 1147.0452 L1017.5045 1141.7743 Z" fill-rule="evenodd" clip-path="url(#clipPath2)"/>
      <text x="1013.332" xml:space="preserve" y="1126.8043" clip-path="url(#clipPath2)" font-family="sans-serif" stroke="none">FAIL</text>
    </g>
    <g fill="white" text-rendering="geometricPrecision" shape-rendering="geometricPrecision" transform="matrix(1,0,0,1,-224,151)" stroke="white">
      <rect x="665" y="-135.5" clip-path="url(#clipPath2)" width="102" rx="4" ry="4" height="69" stroke="none"/>
    </g>
    <g text-rendering="geometricPrecision" stroke-miterlimit="1.45" stroke-width="2" shape-rendering="geometricPrecision" transform="matrix(1,0,0,1,-224,151)" stroke-linecap="butt">
      <rect x="665" y="-135.5" clip-path="url(#clipPath2)" fill="none" width="102" rx="4" ry="4" height="69"/>
      <text x="685.6396" y="-96.8457" clip-path="url(#clipPath2)" font-family="sans-serif" stroke="none" stroke-width="1" xml:space="preserve">mulle-test</text>
    </g>
    <g fill="rgb(204,255,204)" text-rendering="geometricPrecision" shape-rendering="geometricPrecision" transform="matrix(1,0,0,1,-224,151)" stroke="rgb(204,255,204)">
      <path d="M716 1169 L729.0488 1151.2467 L751.1891 1145.1611 L737.1135 1128.1034 L737.748 1106.5889 L716 1113.8 L694.252 1106.5889 L694.8865 1128.1034 L680.8109 1145.1611 L702.9512 1151.2467 Z" fill-rule="evenodd" clip-path="url(#clipPath2)" stroke="none"/>
    </g>
    <g text-rendering="geometricPrecision" stroke-miterlimit="1.45" shape-rendering="geometricPrecision" transform="matrix(1,0,0,1,-224,151)" stroke-linecap="butt">
      <path fill="none" d="M716 1169 L729.0488 1151.2467 L751.1891 1145.1611 L737.1135 1128.1034 L737.748 1106.5889 L716 1113.8 L694.252 1106.5889 L694.8865 1128.1034 L680.8109 1145.1611 L702.9512 1151.2467 Z" fill-rule="evenodd" clip-path="url(#clipPath2)"/>
      <text x="700.6602" xml:space="preserve" y="1138.6543" clip-path="url(#clipPath2)" font-family="sans-serif" stroke="none">PASS</text>
    </g>
    <g fill="white" text-rendering="geometricPrecision" shape-rendering="geometricPrecision" transform="matrix(1,0,0,1,-224,151)" stroke="white">
      <path d="M675.2 607 L767 607 L756.8 641.5 L767 676 L675.2 676 L665 641.5 Z" fill-rule="evenodd" clip-path="url(#clipPath2)" stroke="none"/>
    </g>
    <g stroke-linecap="butt" transform="matrix(1,0,0,1,-224,151)" text-rendering="geometricPrecision" shape-rendering="geometricPrecision" stroke-dasharray="18,6" stroke-width="3" stroke-miterlimit="1.45">
      <path fill="none" d="M675.2 607 L767 607 L756.8 641.5 L767 676 L675.2 676 L665 641.5 Z" fill-rule="evenodd" clip-path="url(#clipPath2)"/>
      <text x="694.3613" y="645.6543" clip-path="url(#clipPath2)" font-family="sans-serif" stroke-dasharray="none" stroke="none" stroke-width="1" xml:space="preserve">grep -E</text>
    </g>
    <g fill="rgb(255,255,153)" text-rendering="geometricPrecision" shape-rendering="geometricPrecision" transform="matrix(1,0,0,1,-224,151)" stroke="rgb(255,255,153)">
      <rect x="488" width="102" height="69" y="607" clip-path="url(#clipPath2)" stroke="none"/>
    </g>
    <g text-rendering="geometricPrecision" stroke-miterlimit="1.45" shape-rendering="geometricPrecision" transform="matrix(1,0,0,1,-224,151)" stroke-linecap="butt">
      <rect fill="none" x="488" width="102" height="69" y="607" clip-path="url(#clipPath2)"/>
      <text x="515.5273" xml:space="preserve" y="645.6543" clip-path="url(#clipPath2)" font-family="sans-serif" stroke="none">a.errors</text>
      <path fill="none" d="M569.7897 -60.0235 L682.7053 56.9954" clip-path="url(#clipPath2)"/>
      <line transform="matrix(-0.6944,-0.7196,0.7196,-0.6944,563.5403,-66.5)" clip-path="url(#clipPath3)" fill="none" x1="-10" x2="2" y1="0" y2="8"/>
      <line transform="matrix(-0.6944,-0.7196,0.7196,-0.6944,563.5403,-66.5)" clip-path="url(#clipPath3)" fill="none" x1="-10" x2="2" y1="0" y2="0"/>
      <line transform="matrix(-0.6944,-0.7196,0.7196,-0.6944,563.5403,-66.5)" clip-path="url(#clipPath3)" fill="none" x1="-10" x2="2" y1="0" y2="-8"/>
    </g>
    <g text-rendering="geometricPrecision" stroke-miterlimit="1.45" shape-rendering="geometricPrecision" transform="matrix(1,0,0,1,-224,151)" stroke-linecap="butt">
      <path fill="none" d="M599 91.5 L665.0278 91.5" clip-path="url(#clipPath2)"/>
      <line transform="matrix(-1,0,0,-1,590,91.5)" clip-path="url(#clipPath4)" fill="none" x1="-10" x2="2" y1="0" y2="8"/>
      <line transform="matrix(-1,0,0,-1,590,91.5)" clip-path="url(#clipPath4)" fill="none" x1="-10" x2="2" y1="0" y2="0"/>
      <line transform="matrix(-1,0,0,-1,590,91.5)" clip-path="url(#clipPath4)" fill="none" x1="-10" x2="2" y1="0" y2="-8"/>
    </g>
    <g text-rendering="geometricPrecision" stroke-miterlimit="1.45" stroke-dasharray="6,2" shape-rendering="geometricPrecision" transform="matrix(1,0,0,1,-224,151)" stroke-linecap="butt">
      <path fill="none" d="M716 125.9739 L716 196.9841" clip-path="url(#clipPath2)"/>
      <path fill="white" d="M716 211.9841 L722 195.9841 L710 195.9841 Z" clip-path="url(#clipPath2)" stroke="none"/>
      <path fill="none" stroke-dasharray="none" d="M716 211.9841 L722 195.9841 L710 195.9841 Z" clip-path="url(#clipPath2)"/>
      <path fill="none" d="M716 280.9824 L716 437.0045" clip-path="url(#clipPath2)"/>
      <path fill="white" d="M716 452.0045 L722 436.0045 L710 436.0045 Z" clip-path="url(#clipPath2)" stroke="none"/>
      <path fill="none" stroke-dasharray="none" d="M716 452.0045 L722 436.0045 L710 436.0045 Z" clip-path="url(#clipPath2)"/>
      <path fill="none" stroke-dasharray="none" d="M747.1171 125.9998 L759.2031 140.875 L776.1758 165.5625 L790.0625 190.25 L800.8633 214.9375 L808.5781 239.625 L813.207 264.3125 L814.75 289 L813.207 313.6875 L808.5781 338.375 L800.8633 363.0625 L790.0625 387.75 L776.1758 412.4375 L759.2031 437.125 L752.1618 445.7913" clip-path="url(#clipPath2)"/>
      <path stroke-dasharray="none" d="M747.1171 452.0002 L758.5648 445.8398 L752.7924 445.0151 L750.8036 439.5338 Z" clip-path="url(#clipPath2)" stroke="none"/>
      <path fill="none" stroke-dasharray="none" d="M599 486.5 L665.0278 486.5" clip-path="url(#clipPath2)"/>
      <line transform="matrix(-1,0,0,-1,590,486.5)" clip-path="url(#clipPath4)" fill="none" x1="-10" x2="2" y1="0" y2="8" stroke-dasharray="none"/>
      <line transform="matrix(-1,0,0,-1,590,486.5)" clip-path="url(#clipPath4)" fill="none" x1="-10" x2="2" y1="0" y2="0" stroke-dasharray="none"/>
      <line transform="matrix(-1,0,0,-1,590,486.5)" clip-path="url(#clipPath4)" fill="none" x1="-10" x2="2" y1="0" y2="-8" stroke-dasharray="none"/>
    </g>
    <g text-rendering="geometricPrecision" stroke-miterlimit="1.45" shape-rendering="geometricPrecision" transform="matrix(1,0,0,1,-224,151)" stroke-linecap="butt">
      <path fill="none" d="M737.3364 521.0275 L986.4873 924.2143" clip-path="url(#clipPath2)"/>
      <path d="M990.6928 931.0197 L988.6379 918.1832 L985.9616 923.3636 L980.1312 923.44 Z" clip-path="url(#clipPath2)" stroke="none"/>
      <path fill="none" d="M748.5015 520.982 L973.9937 760.2151" clip-path="url(#clipPath2)"/>
      <path d="M979.4808 766.0367 L974.8885 753.8748 L973.3077 759.4874 L967.6116 760.7338 Z" clip-path="url(#clipPath2)" stroke="none"/>
      <path fill="none" d="M766.9834 118.1974 L962.2922 220.4706" clip-path="url(#clipPath2)"/>
      <path d="M969.3793 224.1817 L961.0681 214.1855 L961.4063 220.0067 L956.4292 223.0445 Z" clip-path="url(#clipPath2)" stroke="none"/>
      <path fill="none" d="M957.0752 246.5 L756.8143 246.5" clip-path="url(#clipPath2)"/>
      <line transform="matrix(1,0,0,1,966.0752,246.5)" clip-path="url(#clipPath5)" fill="none" x1="-10" x2="2" y1="0" y2="8"/>
      <line transform="matrix(1,0,0,1,966.0752,246.5)" clip-path="url(#clipPath5)" fill="none" x1="-10" x2="2" y1="0" y2="0"/>
      <line transform="matrix(1,0,0,1,966.0752,246.5)" clip-path="url(#clipPath5)" fill="none" x1="-10" x2="2" y1="0" y2="-8"/>
    </g>
    <g text-rendering="geometricPrecision" stroke-miterlimit="1.45" stroke-dasharray="6,2" shape-rendering="geometricPrecision" transform="matrix(1,0,0,1,-224,151)" stroke-linecap="butt">
      <path fill="none" d="M762.6589 266.4053 L991.3402 363.9637" clip-path="url(#clipPath2)"/>
      <path fill="white" d="M1005.1371 369.8496 L992.7748 358.0525 L988.066 369.0901 Z" clip-path="url(#clipPath2)" stroke="none"/>
      <path fill="none" stroke-dasharray="none" d="M1005.1371 369.8496 L992.7748 358.0525 L988.066 369.0901 Z" clip-path="url(#clipPath2)"/>
      <rect x="868.5326" y="310.4256" clip-path="url(#clipPath2)" fill="white" width="4" height="4" stroke="none"/>
      <path fill="none" d="M716 831.0344 L716 915.9973" clip-path="url(#clipPath2)"/>
      <path fill="white" d="M716 930.9973 L722 914.9973 L710 914.9973 Z" clip-path="url(#clipPath2)" stroke="none"/>
      <path fill="none" stroke-dasharray="none" d="M716 930.9973 L722 914.9973 L710 914.9973 Z" clip-path="url(#clipPath2)"/>
      <path fill="none" stroke-dasharray="none" d="M597.6876 414.4765 L665.0278 455.4703" clip-path="url(#clipPath2)"/>
      <line transform="matrix(-0.8542,-0.52,0.52,-0.8542,590,409.7966)" clip-path="url(#clipPath6)" fill="none" x1="-10" x2="2" y1="0" y2="8" stroke-dasharray="none"/>
      <line transform="matrix(-0.8542,-0.52,0.52,-0.8542,590,409.7966)" clip-path="url(#clipPath6)" fill="none" x1="-10" x2="2" y1="0" y2="0" stroke-dasharray="none"/>
      <line transform="matrix(-0.8542,-0.52,0.52,-0.8542,590,409.7966)" clip-path="url(#clipPath6)" fill="none" x1="-10" x2="2" y1="0" y2="-8" stroke-dasharray="none"/>
    </g>
    <g text-rendering="geometricPrecision" stroke-miterlimit="1.45" shape-rendering="geometricPrecision" transform="matrix(1,0,0,1,-224,151)" stroke-linecap="butt">
      <path fill="none" d="M599 246.5 L665.0278 246.5" clip-path="url(#clipPath2)"/>
      <line transform="matrix(-1,0,0,-1,590,246.5)" clip-path="url(#clipPath4)" fill="none" x1="-10" x2="2" y1="0" y2="8"/>
      <line transform="matrix(-1,0,0,-1,590,246.5)" clip-path="url(#clipPath4)" fill="none" x1="-10" x2="2" y1="0" y2="0"/>
      <line transform="matrix(-1,0,0,-1,590,246.5)" clip-path="url(#clipPath4)" fill="none" x1="-10" x2="2" y1="0" y2="-8"/>
    </g>
    <g text-rendering="geometricPrecision" stroke-miterlimit="1.45" shape-rendering="geometricPrecision" transform="matrix(1,0,0,1,-224,151)" stroke-linecap="butt">
      <path fill="none" d="M598.9969 967.0737 L666.0103 968.8314" clip-path="url(#clipPath2)"/>
      <line transform="matrix(-0.9997,-0.0262,0.0262,-0.9997,590,966.8376)" clip-path="url(#clipPath3)" fill="none" x1="-10" x2="2" y1="0" y2="8"/>
      <line transform="matrix(-0.9997,-0.0262,0.0262,-0.9997,590,966.8376)" clip-path="url(#clipPath3)" fill="none" x1="-10" x2="2" y1="0" y2="0"/>
      <line transform="matrix(-0.9997,-0.0262,0.0262,-0.9997,590,966.8376)" clip-path="url(#clipPath3)" fill="none" x1="-10" x2="2" y1="0" y2="-8"/>
    </g>
    <g text-rendering="geometricPrecision" stroke-miterlimit="1.45" shape-rendering="geometricPrecision" transform="matrix(1,0,0,1,-224,151)" stroke-linecap="butt">
      <path fill="none" d="M599 796.5 L665.0278 796.5" clip-path="url(#clipPath2)"/>
      <line transform="matrix(-1,0,0,-1,590,796.5)" clip-path="url(#clipPath4)" fill="none" x1="-10" x2="2" y1="0" y2="8"/>
      <line transform="matrix(-1,0,0,-1,590,796.5)" clip-path="url(#clipPath4)" fill="none" x1="-10" x2="2" y1="0" y2="0"/>
      <line transform="matrix(-1,0,0,-1,590,796.5)" clip-path="url(#clipPath4)" fill="none" x1="-10" x2="2" y1="0" y2="-8"/>
    </g>
    <g text-rendering="geometricPrecision" stroke-miterlimit="1.45" stroke-dasharray="6,2" shape-rendering="geometricPrecision" transform="matrix(1,0,0,1,-224,151)" stroke-linecap="butt">
      <path fill="none" d="M763.8699 772.5651 L991.1127 658.9437" clip-path="url(#clipPath2)"/>
      <path fill="white" d="M1004.5291 652.2354 L987.535 654.0244 L992.9016 664.7574 Z" clip-path="url(#clipPath2)" stroke="none"/>
      <path fill="none" stroke-dasharray="none" d="M1004.5291 652.2354 L987.535 654.0244 L992.9016 664.7574 Z" clip-path="url(#clipPath2)"/>
      <path fill="none" d="M764.0212 989.8437 L991.0985 1104.9572" clip-path="url(#clipPath2)"/>
      <path fill="white" d="M1004.4776 1111.7395 L992.9195 1099.1533 L987.4937 1109.8567 Z" clip-path="url(#clipPath2)" stroke="none"/>
      <path fill="none" stroke-dasharray="none" d="M1004.4776 1111.7395 L992.9195 1099.1533 L987.4937 1109.8567 Z" clip-path="url(#clipPath2)"/>
      <rect x="876" y="1045.6235" clip-path="url(#clipPath2)" fill="white" width="4" height="4" stroke="none"/>
      <path fill="none" stroke-dasharray="none" d="M590.25 -101 L664.9753 -101" clip-path="url(#clipPath2)"/>
      <line transform="matrix(-1,0,0,-1,581.25,-101)" clip-path="url(#clipPath4)" fill="none" x1="-10" x2="2" y1="0" y2="8" stroke-dasharray="none"/>
      <line transform="matrix(-1,0,0,-1,581.25,-101)" clip-path="url(#clipPath4)" fill="none" x1="-10" x2="2" y1="0" y2="0" stroke-dasharray="none"/>
      <line transform="matrix(-1,0,0,-1,581.25,-101)" clip-path="url(#clipPath4)" fill="none" x1="-10" x2="2" y1="0" y2="-8" stroke-dasharray="none"/>
    </g>
    <g text-rendering="geometricPrecision" stroke-miterlimit="1.45" stroke-dasharray="6,2" shape-rendering="geometricPrecision" transform="matrix(1,0,0,1,-224,151)" stroke-linecap="butt">
      <path fill="none" d="M716 -66.4572 L716 41.9854" clip-path="url(#clipPath2)"/>
      <path fill="white" d="M716 56.9854 L722 40.9854 L710 40.9854 Z" clip-path="url(#clipPath2)" stroke="none"/>
      <path fill="none" stroke-dasharray="none" d="M716 56.9854 L722 40.9854 L710 40.9854 Z" clip-path="url(#clipPath2)"/>
      <path fill="none" d="M716 1000.0344 L716 1098.7852" clip-path="url(#clipPath2)"/>
      <path fill="white" d="M716 1113.7852 L722 1097.7852 L710 1097.7852 Z" clip-path="url(#clipPath2)" stroke="none"/>
      <path fill="none" stroke-dasharray="none" d="M716 1113.7852 L722 1097.7852 L710 1097.7852 Z" clip-path="url(#clipPath2)"/>
      <path fill="none" stroke-dasharray="none" d="M961.5436 773.4278 L764.4851 667.5505" clip-path="url(#clipPath2)"/>
      <line transform="matrix(0.8809,0.4733,-0.4733,0.8809,969.4717,777.6875)" clip-path="url(#clipPath7)" fill="none" x1="-10" x2="2" y1="0" y2="8" stroke-dasharray="none"/>
      <line transform="matrix(0.8809,0.4733,-0.4733,0.8809,969.4717,777.6875)" clip-path="url(#clipPath7)" fill="none" x1="-10" x2="2" y1="0" y2="0" stroke-dasharray="none"/>
      <line transform="matrix(0.8809,0.4733,-0.4733,0.8809,969.4717,777.6875)" clip-path="url(#clipPath7)" fill="none" x1="-10" x2="2" y1="0" y2="-8" stroke-dasharray="none"/>
    </g>
    <g text-rendering="geometricPrecision" stroke-miterlimit="1.45" stroke-dasharray="6,2" shape-rendering="geometricPrecision" transform="matrix(1,0,0,1,-224,151)" stroke-linecap="butt">
      <path fill="none" d="M716 520.9739 L716 591.9841" clip-path="url(#clipPath2)"/>
      <path fill="white" d="M716 606.9841 L722 590.9841 L710 590.9841 Z" clip-path="url(#clipPath2)" stroke="none"/>
      <path fill="none" stroke-dasharray="none" d="M716 606.9841 L722 590.9841 L710 590.9841 Z" clip-path="url(#clipPath2)"/>
      <path fill="none" d="M756.8313 641.5 L973.9696 641.5" clip-path="url(#clipPath2)"/>
      <path fill="white" d="M988.9696 641.5 L972.9696 635.5 L972.9696 647.5 Z" clip-path="url(#clipPath2)" stroke="none"/>
      <path fill="none" stroke-dasharray="none" d="M988.9696 641.5 L972.9696 635.5 L972.9696 647.5 Z" clip-path="url(#clipPath2)"/>
      <path fill="none" d="M716 675.9739 L716 746.9841" clip-path="url(#clipPath2)"/>
      <path fill="white" d="M716 761.9841 L722 745.9841 L710 745.9841 Z" clip-path="url(#clipPath2)" stroke="none"/>
      <path fill="none" stroke-dasharray="none" d="M716 761.9841 L722 745.9841 L710 745.9841 Z" clip-path="url(#clipPath2)"/>
      <path fill="none" stroke-dasharray="none" d="M599 641.5 L665.0278 641.5" clip-path="url(#clipPath2)"/>
      <line transform="matrix(-1,0,0,-1,590,641.5)" clip-path="url(#clipPath4)" fill="none" x1="-10" x2="2" y1="0" y2="8" stroke-dasharray="none"/>
      <line transform="matrix(-1,0,0,-1,590,641.5)" clip-path="url(#clipPath4)" fill="none" x1="-10" x2="2" y1="0" y2="0" stroke-dasharray="none"/>
      <line transform="matrix(-1,0,0,-1,590,641.5)" clip-path="url(#clipPath4)" fill="none" x1="-10" x2="2" y1="0" y2="-8" stroke-dasharray="none"/>
    </g>
    <g fill="rgb(245,245,245)" text-rendering="geometricPrecision" shape-rendering="geometricPrecision" transform="matrix(1,0,0,1,-224,151)" stroke="rgb(245,245,245)">
      <rect x="239.85" y="1051.4609" clip-path="url(#clipPath2)" width="279.4" rx="4" ry="4" height="151.8" stroke="none"/>
    </g>
    <g text-rendering="geometricPrecision" stroke-miterlimit="1.45" stroke-dasharray="6,2" shape-rendering="geometricPrecision" transform="matrix(1,0,0,1,-224,151)" stroke-linecap="butt">
      <rect x="239.85" y="1051.4609" clip-path="url(#clipPath2)" fill="none" width="279.4" rx="4" ry="4" height="151.8"/>
    </g>
    <g fill="rgb(255,255,153)" text-rendering="geometricPrecision" shape-rendering="geometricPrecision" transform="matrix(1,0,0,1,-224,151)" stroke="rgb(255,255,153)">
      <rect x="268.85" width="59.8" height="20.2" y="1066.4609" clip-path="url(#clipPath2)" stroke="none"/>
    </g>
    <g text-rendering="geometricPrecision" stroke-miterlimit="1.45" shape-rendering="geometricPrecision" transform="matrix(1,0,0,1,-224,151)" stroke-linecap="butt">
      <rect fill="none" x="268.85" width="59.8" height="20.2" y="1066.4609" clip-path="url(#clipPath2)"/>
    </g>
    <g fill="rgb(204,255,255)" text-rendering="geometricPrecision" shape-rendering="geometricPrecision" transform="matrix(1,0,0,1,-224,151)" stroke="rgb(204,255,255)">
      <rect x="268.85" width="59.8" height="20.2" y="1092.4609" clip-path="url(#clipPath2)" stroke="none"/>
    </g>
    <g text-rendering="geometricPrecision" stroke-miterlimit="1.45" shape-rendering="geometricPrecision" transform="matrix(1,0,0,1,-224,151)" stroke-linecap="butt">
      <rect fill="none" x="268.85" width="59.8" height="20.2" y="1092.4609" clip-path="url(#clipPath2)"/>
      <text x="359.05" xml:space="preserve" y="1182.0153" clip-path="url(#clipPath2)" font-family="sans-serif" stroke="none">flow</text>
      <text x="359.05" xml:space="preserve" y="1156.6152" clip-path="url(#clipPath2)" font-family="sans-serif" stroke="none">input</text>
      <text x="359.05" xml:space="preserve" y="1130.9153" clip-path="url(#clipPath2)" font-family="sans-serif" stroke="none">output</text>
      <text x="359.05" xml:space="preserve" y="1106.4153" clip-path="url(#clipPath2)" font-family="sans-serif" stroke="none">tmp file</text>
      <text x="359.05" xml:space="preserve" y="1080.7152" clip-path="url(#clipPath2)" font-family="sans-serif" stroke="none">test file</text>
    </g>
    <g fill="white" text-rendering="geometricPrecision" shape-rendering="geometricPrecision" transform="matrix(1,0,0,1,-224,151)" stroke="white">
      <path d="M823.2 931 L915 931 L904.8 965.5 L915 1000 L823.2 1000 L813 965.5 Z" fill-rule="evenodd" clip-path="url(#clipPath2)" stroke="none"/>
    </g>
    <g stroke-linecap="butt" transform="matrix(1,0,0,1,-224,151)" text-rendering="geometricPrecision" shape-rendering="geometricPrecision" stroke-dasharray="18,6" stroke-width="3" stroke-miterlimit="1.45">
      <path fill="none" d="M823.2 931 L915 931 L904.8 965.5 L915 1000 L823.2 1000 L813 965.5 Z" fill-rule="evenodd" clip-path="url(#clipPath2)"/>
      <text x="854.6719" y="969.6543" clip-path="url(#clipPath2)" font-family="sans-serif" stroke-dasharray="none" stroke="none" stroke-width="1" xml:space="preserve">cat</text>
    </g>
    <g fill="white" text-rendering="geometricPrecision" shape-rendering="geometricPrecision" transform="matrix(1,0,0,1,-224,151)" stroke="white">
      <path d="M823.2 762.0003 L915 762.0003 L904.8 796.5003 L915 831.0003 L823.2 831.0003 L813 796.5003 Z" fill-rule="evenodd" clip-path="url(#clipPath2)" stroke="none"/>
    </g>
    <g stroke-linecap="butt" transform="matrix(1,0,0,1,-224,151)" text-rendering="geometricPrecision" shape-rendering="geometricPrecision" stroke-dasharray="18,6" stroke-width="3" stroke-miterlimit="1.45">
      <path fill="none" d="M823.2 762.0003 L915 762.0003 L904.8 796.5003 L915 831.0003 L823.2 831.0003 L813 796.5003 Z" fill-rule="evenodd" clip-path="url(#clipPath2)"/>
      <text x="854.6719" y="800.6543" clip-path="url(#clipPath2)" font-family="sans-serif" stroke-dasharray="none" stroke="none" stroke-width="1" xml:space="preserve">cat</text>
      <path fill="none" stroke-dasharray="none" d="M268.85 1127.0609 L316.25 1127.0609 L326.1625 1127.0609 L327.65 1127.0083" stroke-width="1" clip-path="url(#clipPath2)"/>
      <path stroke-dasharray="none" d="M327.65 1127.0083 L315.4807 1122.4355 L318.6556 1127.3264 L315.8342 1132.4293 Z" stroke-width="1" clip-path="url(#clipPath2)" stroke="none"/>
      <path fill="none" stroke-dasharray="none" d="M277.8499 1152.6949 L327.65 1152.4897" stroke-width="1" clip-path="url(#clipPath2)"/>
      <line transform="matrix(-1,0.0041,-0.0041,-1,268.85,1152.7321)" clip-path="url(#clipPath8)" fill="none" x1="-10" x2="2" y1="0" y2="8" stroke-dasharray="none" stroke-width="1"/>
      <line transform="matrix(-1,0.0041,-0.0041,-1,268.85,1152.7321)" clip-path="url(#clipPath8)" fill="none" x1="-10" x2="2" y1="0" y2="0" stroke-dasharray="none" stroke-width="1"/>
      <line transform="matrix(-1,0.0041,-0.0041,-1,268.85,1152.7321)" clip-path="url(#clipPath8)" fill="none" x1="-10" x2="2" y1="0" y2="-8" stroke-dasharray="none" stroke-width="1"/>
    </g>
    <g text-rendering="geometricPrecision" stroke-miterlimit="1.45" stroke-dasharray="6,2" shape-rendering="geometricPrecision" transform="matrix(1,0,0,1,-224,151)" stroke-linecap="butt">
      <path fill="none" d="M268.85 1178.1321 L312.6501 1177.9515" clip-path="url(#clipPath2)"/>
      <path fill="white" d="M327.65 1177.8898 L311.6254 1171.9557 L311.6748 1183.9556 Z" clip-path="url(#clipPath2)" stroke="none"/>
      <path fill="none" stroke-dasharray="none" d="M327.65 1177.8898 L311.6254 1171.9557 L311.6748 1183.9556 Z" clip-path="url(#clipPath2)"/>
      <path fill="none" stroke-dasharray="none" d="M957.0752 965.5 L904.8201 965.5" clip-path="url(#clipPath2)"/>
      <line transform="matrix(1,0,0,1,966.0752,965.5)" clip-path="url(#clipPath5)" fill="none" x1="-10" x2="2" y1="0" y2="8" stroke-dasharray="none"/>
      <line transform="matrix(1,0,0,1,966.0752,965.5)" clip-path="url(#clipPath5)" fill="none" x1="-10" x2="2" y1="0" y2="0" stroke-dasharray="none"/>
      <line transform="matrix(1,0,0,1,966.0752,965.5)" clip-path="url(#clipPath5)" fill="none" x1="-10" x2="2" y1="0" y2="-8" stroke-dasharray="none"/>
    </g>
    <g text-rendering="geometricPrecision" stroke-miterlimit="1.45" stroke-dasharray="6,2" shape-rendering="geometricPrecision" transform="matrix(1,0,0,1,-224,151)" stroke-linecap="butt">
      <path fill="none" d="M813.0166 965.5 L756.7867 965.5" clip-path="url(#clipPath2)"/>
      <path fill="none" d="M957.2953 799.0451 L905.1066 797.6214" clip-path="url(#clipPath2)"/>
      <line transform="matrix(0.9996,0.0273,-0.0273,0.9996,966.292,799.2906)" clip-path="url(#clipPath7)" fill="none" x1="-10" x2="2" y1="0" y2="8" stroke-dasharray="none"/>
      <line transform="matrix(0.9996,0.0273,-0.0273,0.9996,966.292,799.2906)" clip-path="url(#clipPath7)" fill="none" x1="-10" x2="2" y1="0" y2="0" stroke-dasharray="none"/>
      <line transform="matrix(0.9996,0.0273,-0.0273,0.9996,966.292,799.2906)" clip-path="url(#clipPath7)" fill="none" x1="-10" x2="2" y1="0" y2="-8" stroke-dasharray="none"/>
    </g>
    <g text-rendering="geometricPrecision" stroke-miterlimit="1.45" stroke-dasharray="6,2" shape-rendering="geometricPrecision" transform="matrix(1,0,0,1,-224,151)" stroke-linecap="butt">
      <path fill="none" d="M813.0166 796.5 L756.7867 796.5" clip-path="url(#clipPath2)"/>
    </g>
  </g>
</svg>
